<svg height="512" viewBox="0 0 512 512" width="512" xmlns="http://www.w3.org/2000/svg" xmlns:xlink="http://www.w3.org/1999/xlink"><linearGradient id="New_Gradient_Swatch_2" gradientUnits="userSpaceOnUse" x1="128" x2="128" y1="75.566" y2="435.993"><stop offset="0" stop-color="#fc5c7d"/><stop offset=".129" stop-color="#f35e85"/><stop offset=".343" stop-color="#d9659b"/><stop offset=".616" stop-color="#b070bf"/><stop offset=".934" stop-color="#777ff0"/><stop offset="1" stop-color="#6a82fb"/></linearGradient><linearGradient id="New_Gradient_Swatch_2-2" x1="160" x2="160" xlink:href="#New_Gradient_Swatch_2" y1="75.566" y2="435.993"/><linearGradient id="New_Gradient_Swatch_2-3" x1="272" x2="272" xlink:href="#New_Gradient_Swatch_2" y1="75.566" y2="435.993"/><linearGradient id="New_Gradient_Swatch_2-5" x1="248" x2="248" xlink:href="#New_Gradient_Swatch_2" y1="75.566" y2="435.993"/><g id="GD001"><path d="m120 448h16v16h-16z" fill="url(#New_Gradient_Swatch_2)"/><path d="m304 352h-136v-120a8 8 0 0 0 -8-8h-144a8 8 0 0 0 -8 8v256a8 8 0 0 0 8 8h288a8 8 0 0 0 8-8v-128a8 8 0 0 0 -8-8zm-88 16h32v32h-32zm-144-128h32v32h-32zm-48 0h32v40a8 8 0 0 0 8 8h48a8 8 0 0 0 8-8v-40h32v112h-128zm48 128h32v32h-32zm-48 0h32v40a8 8 0 0 0 8 8h48a8 8 0 0 0 8-8v-40h32v112h-128zm272 112h-128v-112h32v40a8 8 0 0 0 8 8h48a8 8 0 0 0 8-8v-40h32z" fill="url(#New_Gradient_Swatch_2-2)"/><path d="m264 448h16v16h-16z" fill="url(#New_Gradient_Swatch_2-3)"/><path d="m120 320h16v16h-16z" fill="url(#New_Gradient_Swatch_2)"/><g fill="url(#New_Gradient_Swatch_2-5)"><path d="m478.123 111.776a7.941 7.941 0 0 0 1.877.224 8.023 8.023 0 0 0 6.926-3.984 8.237 8.237 0 0 0 1.074-4.2v-31.816a8 8 0 0 0 -6.123-7.776l-232-56a7.967 7.967 0 0 0 -3.754 0l-232 56a8 8 0 0 0 -6.123 7.776v31.773a8.322 8.322 0 0 0 1.374 4.718 8.013 8.013 0 0 0 8.5 3.285l14.126-3.409v99.633h16v-103.495l200-48.276 200 48.276v375.495h-48v-312a8 8 0 0 0 -8-8h-288a8 8 0 0 0 -8 8v32a8 8 0 0 0 8 8h280v16h-200v16h200v16h-200v16h200v16h-200v16h200v176h-56v16h160v-16h-24v-371.633zm-366.123 80.224v-16h272v16zm136-152a7.943 7.943 0 0 0 -1.877.224l-222.123 53.615v-15.539l224-54.07 224 54.07v15.54l-222.123-53.616a7.943 7.943 0 0 0 -1.877-.224z"/><path d="m264 136a24 24 0 0 0 0-48h-32a24 24 0 0 0 0 48zm-40-24a8.009 8.009 0 0 1 8-8h32a8 8 0 0 1 0 16h-32a8.009 8.009 0 0 1 -8-8z"/></g></g></svg>